<?xml version="1.0" encoding="iso-8859-1"?>
<!-- Generator: Adobe Illustrator 19.0.0, SVG Export Plug-In . SVG Version: 6.00 Build 0)  -->
<svg version="1.1" id="Layer_1" xmlns="http://www.w3.org/2000/svg" xmlns:xlink="http://www.w3.org/1999/xlink" x="0px" y="0px"
	 viewBox="0 0 512 512" style="enable-background:new 0 0 512 512;" xml:space="preserve">
<rect x="71.659" y="372.42" style="fill:#00AC4E;" width="160.294" height="32.058"/>
<g>
	<rect x="71.659" y="244.185" style="fill:#36C63F;" width="160.294" height="128.235"/>
	<polygon style="fill:#36C63F;" points="352.167,284.257 440.326,284.257 440.326,460.575 264.007,460.575 264.007,284.257 	"/>
</g>
<polygon style="fill:#808285;" points="504.441,460.575 504.441,492.633 7.544,492.633 7.544,460.575 31.589,460.575 
	264.007,460.575 440.326,460.575 480.398,460.575 "/>
<path style="fill:#C3C7C9;" d="M480.398,196.098v264.477h-40.072V284.257h-88.159h-88.159v176.318H31.589V196.098h64.115h80.145
	h80.145h80.145h80.145H480.398z M231.949,404.474v-32.058V244.184H71.661v128.231v32.058h160.289V404.474z"/>
<polygon style="fill:#808285;" points="504.441,19.779 504.441,51.838 416.282,51.838 336.138,51.838 255.993,51.838 
	175.849,51.838 95.704,51.838 7.544,51.838 7.544,19.779 "/>
<g>
	<polygon style="fill:#EF3E25;" points="504.441,188.084 496.427,196.098 480.398,196.098 416.282,196.098 416.282,51.838 
		504.441,51.838 	"/>
	<rect x="255.996" y="51.833" style="fill:#EF3E25;" width="80.147" height="144.264"/>
	<rect x="95.703" y="51.833" style="fill:#EF3E25;" width="80.147" height="144.264"/>
</g>
<g>
	<rect x="336.143" y="51.833" style="fill:#F25B22;" width="80.147" height="144.264"/>
	<rect x="175.85" y="51.833" style="fill:#F25B22;" width="80.147" height="144.264"/>
	<polygon style="fill:#F25B22;" points="95.704,51.838 95.704,196.098 31.589,196.098 15.559,196.098 7.544,188.084 7.544,51.838 	
		"/>
</g>
<path style="fill:#231F20;" d="M0,12.022v178.983l12.438,12.439h11.605v249.374H0v47.161h512v-47.161h-24.044V203.442h11.605
	L512,191.004V12.022H0z M18.694,188.339l-3.59-3.59V99.255h56.564V84.152H15.103V59.182h73.056v129.157H18.694z M472.853,203.442
	v249.374h-24.969V276.499H256.463v176.318H39.146V203.442H472.853z M103.262,188.339V59.182h65.042v129.157H103.262z
	 M183.406,188.339V59.182h65.042v129.157H183.406z M263.552,188.339V59.182h65.042v129.157H263.552z M343.697,188.339V59.182h65.042
	v129.157H343.697z M359.725,380.224v-88.623h73.056v161.215H271.566V291.602h73.056v88.623h15.103V380.224z M496.897,467.92v16.955
	H15.103V467.92H496.897z M496.897,84.152h-56.565v15.103h56.565v85.494l-3.59,3.59h-69.465V59.182h73.056v24.969H496.897z
	 M496.897,44.079H15.103V27.125h481.794V44.079z"/>
<rect x="31.595" y="156.286" style="fill:#FFFFFF;" width="16.028" height="15.103"/>
<rect x="464.378" y="156.286" style="fill:#231F20;" width="16.028" height="15.103"/>
<rect x="368.202" y="156.286" style="fill:#FFFFFF;" width="16.028" height="15.103"/>
<rect x="288.055" y="156.286" style="fill:#231F20;" width="16.028" height="15.103"/>
<rect x="207.918" y="156.286" style="fill:#FFFFFF;" width="16.028" height="15.103"/>
<g>
	<rect x="127.772" y="156.286" style="fill:#231F20;" width="16.028" height="15.103"/>
	<rect x="344.621" y="396.253" style="fill:#231F20;" width="15.103" height="16.029"/>
	<polygon style="fill:#231F20;" points="288.52,356.18 303.623,356.18 303.623,323.66 320.116,323.66 320.116,308.557 
		288.52,308.557 	"/>
	<rect x="400.261" y="308.555" style="fill:#231F20;" width="16.029" height="15.103"/>
</g>
<g>
	<rect x="376.217" y="308.555" style="fill:#FFFFFF;" width="16.028" height="15.103"/>
	<rect x="400.261" y="332.599" style="fill:#FFFFFF;" width="16.029" height="15.103"/>
</g>
<rect x="264.011" y="236.422" style="fill:#231F20;" width="80.147" height="15.103"/>
<g>
	<rect x="360.187" y="236.422" style="fill:#FFFFFF;" width="16.029" height="15.103"/>
	<rect x="392.246" y="236.422" style="fill:#FFFFFF;" width="16.029" height="15.103"/>
</g>
<g>
	<rect x="424.305" y="236.422" style="fill:#231F20;" width="16.029" height="15.103"/>
	<path style="fill:#231F20;" d="M239.508,236.426H64.115v175.392h175.393V236.426z M224.405,396.715H79.218V379.76h145.186V396.715z
		 M224.405,364.657H79.218V251.53h145.186V364.657z"/>
</g>
<polygon style="fill:#FFFFFF;" points="111.277,283.587 143.797,283.587 143.797,268.484 96.174,268.484 96.174,308.093 
	111.277,308.093 "/>
<rect x="96.176" y="324.121" style="fill:#231F20;" width="15.103" height="16.029"/>
<g>
</g>
<g>
</g>
<g>
</g>
<g>
</g>
<g>
</g>
<g>
</g>
<g>
</g>
<g>
</g>
<g>
</g>
<g>
</g>
<g>
</g>
<g>
</g>
<g>
</g>
<g>
</g>
<g>
</g>
</svg>
