<?xml version="1.0" encoding="iso-8859-1"?>
<!-- Generator: Adobe Illustrator 19.0.0, SVG Export Plug-In . SVG Version: 6.00 Build 0)  -->
<svg version="1.1" id="Layer_1" xmlns="http://www.w3.org/2000/svg" xmlns:xlink="http://www.w3.org/1999/xlink" x="0px" y="0px"
	 viewBox="0 0 512 512" style="enable-background:new 0 0 512 512;" xml:space="preserve">
<path style="fill:#93E6FF;" d="M183.685,39.76c5.279-5.659,14.269-5.659,19.548,0c36.12,38.715,159.979,180.379,159.979,302.486
	c0,93.752-76.002,169.753-169.754,169.753S23.705,435.999,23.705,342.247C23.706,220.139,147.566,78.475,183.685,39.76z"/>
<path style="fill:#59D8FF;" d="M282.804,467.328c-93.752,0-169.754-76.002-169.754-169.754c0-83.863,58.409-176.904,106.707-239.53
	c-6.514-7.422-12.131-13.572-16.481-18.237c-5.298-5.68-14.293-5.725-19.592-0.046C147.563,78.479,23.706,220.141,23.706,342.247
	C23.706,435.999,99.708,512,193.46,512c45.503,0,86.73-18.005,117.209-47.152C301.582,466.352,292.317,467.328,282.804,467.328z"/>
<g>
	<path style="fill:#93E6FF;" d="M184.533,484.904c-0.201,0-0.401-0.004-0.602-0.022c-6.404-0.428-12.818-1.287-19.056-2.556
		c-4.834-0.986-7.957-5.701-6.971-10.54c0.977-4.833,5.715-7.948,10.531-6.971c5.462,1.112,11.072,1.867,16.683,2.243
		c4.93,0.327,8.646,4.584,8.324,9.511C193.128,481.288,189.193,484.904,184.533,484.904z"/>
	<path style="fill:#93E6FF;" d="M220.254,482.505c-4.162,0-7.879-2.918-8.742-7.15c-0.986-4.833,2.129-9.554,6.971-10.54
		c42.7-8.703,78.307-39.694,92.921-80.885c1.65-4.655,6.771-7.076,11.404-5.431c4.65,1.649,7.085,6.758,5.435,11.408
		c-16.691,47.059-57.384,82.469-106.201,92.42C221.449,482.449,220.847,482.505,220.254,482.505z"/>
</g>
<path style="fill:#C9F3FF;" d="M322.808,378.499c-4.632-1.645-9.754,0.776-11.404,5.431c-12.718,35.845-41.342,63.949-76.694,76.38
	c9.561,2.822,19.451,4.871,29.633,5.974c29.285-16.831,52.348-43.805,63.9-76.377C329.893,385.257,327.458,380.149,322.808,378.499z
	"/>
<path style="fill:#59D8FF;" d="M363.213,342.247c0-82.961-57.164-174.916-105.15-237.512c-21.267,38.205-37.8,80.875-37.8,121.365
	c0,78.046,62.895,141.588,140.65,142.834C362.292,360.218,363.213,351.35,363.213,342.247z"/>
<path style="fill:#D4F5FF;" d="M353.323,4.386c5.299-5.845,14.48-5.845,19.781,0c29.557,32.597,115.191,134.56,115.191,221.714
	c0,69.081-56.001,125.082-125.082,125.082S238.132,295.18,238.132,226.1C238.132,138.946,323.766,36.983,353.323,4.386z"/>
<path style="fill:#BAEFFF;" d="M443.623,306.509c-69.081,0-125.082-56.001-125.082-125.082c0-55.38,34.574-116.716,67.369-162.457
	c-4.907-5.752-9.257-10.658-12.802-14.57c-5.313-5.863-14.477-5.869-19.791-0.007c-29.564,32.605-115.184,134.559-115.184,221.707
	c0,69.081,56.001,125.082,125.082,125.082c39.013,0,73.839-17.873,96.777-45.864C454.621,306.021,449.185,306.509,443.623,306.509z"
	/>
<path style="fill:#FFFFFF;" d="M363.213,324.378c-4.938,0-8.934-4-8.934-8.934s3.996-8.934,8.934-8.934
	c44.34,0,80.41-36.074,80.41-80.41c0-4.934,3.996-8.934,8.934-8.934s8.934,4,8.934,8.934
	C461.492,280.291,417.404,324.378,363.213,324.378z"/>
<path style="fill:#D4F5FF;" d="M422.171,304.541c-8.088-1.4-15.892-3.572-23.368-6.446c-10.746,5.334-22.802,8.414-35.59,8.414
	c-4.938,0-8.934,4-8.934,8.934s3.996,8.934,8.934,8.934C385.346,324.378,405.724,316.936,422.171,304.541z"/>
<g>
</g>
<g>
</g>
<g>
</g>
<g>
</g>
<g>
</g>
<g>
</g>
<g>
</g>
<g>
</g>
<g>
</g>
<g>
</g>
<g>
</g>
<g>
</g>
<g>
</g>
<g>
</g>
<g>
</g>
</svg>
