<svg id="Layer_1_1_" enable-background="new 0 0 64 64" height="512" viewBox="0 0 64 64" width="512" xmlns="http://www.w3.org/2000/svg"><path d="m50.836 51.459h-3.672l-6.507 1.627-8.657 7.914-8.657-7.914-6.507-1.627h-3.672l-4.341 10.541h46.354z" fill="#707070"/><path d="m23.343 53.086-6.507-1.627h-3.672l-1.603 3.892 4.894-.297 15.545 5.946z" fill="#616161"/><path d="m36 51 1 3 3.657-.914 8.343-2.086 12 3-3-4-9-3z" fill="#fdb62f"/><path d="m45 9-13-6-13 6-7 19 6 7 7.917 2.879 3.083 1.121h3 3l3.341-1.215 7.659-2.785 6-7z" fill="#707070"/><path d="m36 51-4-12-4 12-1 3-3.657-.914 8.657 7.914 8.657-7.914-3.657.914z" fill="#fdb62f"/><path d="m32 39 4 12 13-4 9 3-4.5-6c-2.833-3.777-7.279-6-12-6l-3.159-.215-3.341 1.215z" fill="#707070"/><path d="m28 51 4-12h-3l-3.083-1.121-3.417.121c-4.721 0-9.167 2.223-12 6l-4.5 6 9-3z" fill="#707070"/><path d="m47.164 51.459-6.507 1.627-8.657 7.914 15.312-6.107 5.486 1.331-1.962-4.765z" fill="#616161"/><path d="m23.343 53.086 3.657.914 1-3-13-4-9 3-3 4 12-3z" fill="#fdb62f"/><path d="m32 16-11 4.701v7.299l8 11h3 3l8-11v-7.345z" fill="#ffecc7"/><path d="m43 20.655-11-4.655-11 4.701v5.243c1.313-.114 2.817-.375 3.992-.944 2.652-1.286 4.438-6.054 6.973-5.973 2.535-.08 4.821 4.688 7.473 5.973 1.049.508 2.359.769 3.563.901v-5.246z" fill="#dbcbab"/><g fill="#616161"><path d="m46 35 6-7-7.098 3.5-9.902 7.5 3.341-1.215z"/><path d="m12.205 28-.089.136 5.884 6.864 7.917 2.879 3.083 1.121h.205l-9.901-7.5z"/><path d="m49.423 40.281c-2.35-1.463-5.083-2.281-7.923-2.281l-3.159-.215-3.341 1.215h-3l1.46 4.379 4.889-1.986s2.17-1.688 6.429-1.205c1.707.193 3.32.178 4.645.093z"/><path d="m32 39h-3l-3.083-1.121-3.417.121c-2.839 0-5.57.817-7.919 2.278l.002.002c1.325.086 2.938.1 4.646-.093 4.259-.482 6.429 1.205 6.429 1.205l4.883 1.984z"/></g><path d="m3.243 54.97 8.242-2.061-3.586 8.71 1.85.762 4.148-10.074 1.103-.276 7.854 1.964 8.471 7.744c.191.174.433.261.675.261s.484-.087.675-.262l8.471-7.744 7.854-1.963 1.103.276 4.148 10.074 1.85-.762-3.586-8.71 8.242 2.061c.411.104.842-.064 1.076-.417s.221-.814-.033-1.153l-7.5-10c-2.681-3.575-6.78-5.852-11.141-6.302l3.183-1.158c.162-.059.306-.159.417-.289l6-7c.236-.275.304-.657.179-.997l-7-19c-.092-.249-.279-.451-.52-.563l-13-6c-.266-.122-.572-.122-.838 0l-13 6c-.241.111-.428.313-.52.563l-7 19c-.125.34-.057.721.179.997l6 7c.112.13.256.23.417.289l3.185 1.158c-4.389.464-8.469 2.739-11.141 6.302l-7.5 10c-.254.339-.268.801-.033 1.153.234.353.667.521 1.076.417zm28.757 4.675-5.106-4.668c.46.047.904-.211 1.055-.661l4.051-12.154 4.051 12.154c.139.416.527.684.949.684.031 0 .063-.009.094-.012zm-2.491-21.645-7.509-10.325v-6.301l10-4.286 10 4.286v6.301l-7.509 10.325zm19.734 12.03c-.159-.04-.326-.04-.485 0l-11.102 2.775-.384-1.151 11.716-3.605 8.4 2.8 1.122 1.497zm-7.743-11.03c4.383 0 8.57 2.093 11.2 5.6l2.579 3.439-5.963-1.988c-.197-.065-.411-.068-.61-.007l-12.066 3.713-3.252-9.757h1.612c.114 0 .23-.02.342-.06l3.143-1.143zm-28.359-11.205 6.654-18.061 12.205-5.632 12.205 5.633 6.654 18.061-5.447 6.355-7.678 2.792 6.075-8.354c.124-.172.191-.378.191-.589v-5.769l1.606.688.788-1.838-14-6c-.252-.108-.536-.108-.788 0l-14 6 .788 1.838 1.606-.688v5.769c0 .211.067.417.191.588l6.075 8.354-7.678-2.792zm-1.841 16.805c2.63-3.507 6.817-5.6 11.236-5.6l3.222-.114 2.9 1.055c.112.04.227.056.342.056v.003h1.612l-3.252 9.757-12.066-3.713c-.2-.062-.413-.06-.61.007l-5.963 1.988zm-4.688 6.25 8.4-2.8 11.716 3.605-.384 1.151-11.101-2.776c-.159-.04-.326-.04-.485 0l-9.268 2.317z"/><path d="m35.707 32.707 1-1-1.414-1.414-.707.707h-6.586v2h7c.265 0 .52-.105.707-.293z"/><path d="m36.804 23.98c.065.014.131.02.196.02.107 0 .214-.017.316-.051l3-1-.633-1.897-2.748.916-4.739-.948c-.13-.026-.263-.026-.393 0l-4.739.948-2.748-.916-.633 1.897 3 1c.165.055.34.065.513.032l4.804-.961z"/><path d="m31 26h2v3h-2z"/></svg>